<svg width="1046" height="1046" viewBox="0 0 1046 1046" fill="none" xmlns="http://www.w3.org/2000/svg">
<path fill-rule="evenodd" clip-rule="evenodd" d="M134.309 400.559C134.104 395.392 134 390.198 134 384.98C134 172.626 305.868 0.479675 517.879 0.479675C729.889 0.479675 901.758 172.626 901.758 384.98C901.758 390.198 901.654 395.392 901.448 400.559H784.346C784.641 395.404 784.79 390.209 784.79 384.98C784.79 236.642 664.733 116.391 516.635 116.391C368.537 116.391 248.479 236.642 248.479 384.98C248.479 390.209 248.629 395.404 248.923 400.559H134.309Z" fill="#0066FF"/>
<path fill-rule="evenodd" clip-rule="evenodd" d="M507.94 1045.68C511.449 1045.84 514.969 1045.92 518.5 1045.92C730.167 1045.92 901.758 758.87 901.758 404.772C901.758 396.071 901.654 387.41 901.449 378.793L869.116 378.793C869.343 387.442 869.457 396.14 869.457 404.882C869.457 728.044 712.884 990.018 519.742 990.018C515.793 990.018 511.858 989.908 507.94 989.691V1045.68Z" fill="#0066FF"/>
<ellipse cx="251" cy="395.5" rx="115" ry="114.5" fill="#36AEE2"/>
<ellipse cx="520" cy="394" rx="115" ry="115" transform="rotate(90 520 394)" fill="#36AEE2"/>
<ellipse cx="520" cy="663" rx="115" ry="115" transform="rotate(90 520 663)" fill="#36AEE2"/>
<ellipse cx="788" cy="395.5" rx="115" ry="114.5" fill="#36AEE2"/>
<ellipse cx="520" cy="931" rx="115" ry="115" transform="rotate(90 520 931)" fill="#36AEE2"/>
<path fill-rule="evenodd" clip-rule="evenodd" d="M404.829 930.386C404.828 930.593 404.827 930.8 404.827 931.007C404.827 994.473 456.276 1045.92 519.742 1045.92C583.208 1045.92 634.658 994.473 634.658 931.007C634.658 930.8 634.657 930.593 634.656 930.386H404.829Z" fill="#0066FF"/>
<path fill-rule="evenodd" clip-rule="evenodd" d="M786.221 511.714C786.43 511.715 786.64 511.716 786.849 511.716C850.998 511.716 903 459.713 903 395.565C903 331.416 850.998 279.414 786.849 279.414C786.64 279.414 786.43 279.414 786.221 279.416L786.221 511.714Z" fill="#0066FF"/>
<path fill-rule="evenodd" clip-rule="evenodd" d="M250.779 279.409C250.57 279.408 250.36 279.407 250.151 279.407C186.002 279.407 134 331.41 134 395.558C134 459.706 186.002 511.709 250.151 511.709C250.36 511.709 250.57 511.708 250.779 511.707L250.779 279.409Z" fill="#0066FF"/>
</svg>
